<svg xmlns="http://www.w3.org/2000/svg" width="21.714" height="26.725" viewBox="0 0 21.714 26.725"><g transform="translate(-48)"><path d="M74.505,2.088,72,0V3.48Z" transform="translate(-22.747)" fill="#f15642"/><path d="M51.758,42.088H48L51.758,40Z" transform="translate(0 -37.912)" fill="#d3463c"/><path d="M88.7,0H72l2.505,2.088V4.176H88.7V2.088L91.209,0Z" transform="translate(-22.747)" fill="#bc3e34"/><path d="M392,2.088,394.505,0V3.48Z" transform="translate(-326.044)" fill="#f15642"/><path d="M392,42.088h3.758L392,40Z" transform="translate(-326.044 -37.912)" fill="#d3463c"/><path d="M48,80v21.723a.771.771,0,0,0,.725.826H68.988a.771.771,0,0,0,.726-.826V80Z" transform="translate(0 -75.824)" fill="#f15642"/><g transform="translate(52.612 7.118)"><circle cx="1.041" cy="1.041" r="1.041" transform="translate(0 0)" fill="#bc3e34"/><circle cx="1.041" cy="1.041" r="1.041" transform="translate(10.408 0)" fill="#bc3e34"/></g><path d="M134.681,135.516A6.689,6.689,0,0,1,128,128.835a.835.835,0,1,1,1.67,0,5.011,5.011,0,0,0,10.022,0,.835.835,0,1,1,1.67,0A6.689,6.689,0,0,1,134.681,135.516Z" transform="translate(-75.824 -121.319)" fill="#fff"/><path d="M134.681,161.941a6.689,6.689,0,0,1-6.65-6.061.831.831,0,0,0-.031.215,6.681,6.681,0,1,0,13.362,0,.831.831,0,0,0-.031-.215A6.689,6.689,0,0,1,134.681,161.941Z" transform="translate(-75.824 -147.744)" fill="#d3463c"/><g transform="translate(51.76 19.209)"><rect width="1.181" height="1.181" transform="translate(5.844 4.176) rotate(-135)" fill="#fff"/><rect width="1.181" height="1.181" transform="translate(3.337 4.175) rotate(-135)" fill="#fff"/><rect width="1.181" height="1.181" transform="translate(0.835 4.176) rotate(-135)" fill="#fff"/><rect width="1.181" height="1.181" transform="translate(13.359 4.176) rotate(-135)" fill="#fff"/><rect width="1.181" height="1.181" transform="translate(10.857 4.176) rotate(-135)" fill="#fff"/><rect width="1.181" height="1.181" transform="translate(8.35 4.176) rotate(-135)" fill="#fff"/><rect width="1.181" height="1.181" transform="translate(7.097 1.67) rotate(-135)" fill="#fff"/><rect width="1.181" height="1.181" transform="translate(4.591 1.67) rotate(-135)" fill="#fff"/><rect width="1.181" height="1.181" transform="translate(2.085 1.67) rotate(-135)" fill="#fff"/><rect width="1.181" height="1.181" transform="translate(12.107 1.67) rotate(-135)" fill="#fff"/><rect width="1.181" height="1.181" transform="translate(9.601 1.67) rotate(-135)" fill="#fff"/></g></g></svg>