<svg xmlns="http://www.w3.org/2000/svg" width="19.959" height="32.525" viewBox="0 0 19.959 32.525"><g transform="translate(-13.255 0.004)"><path d="M33.959,31.441a3.206,3.206,0,0,1-3.326,3.049H17.326A3.206,3.206,0,0,1,14,31.441V7.048A3.206,3.206,0,0,1,17.326,4H30.632a3.206,3.206,0,0,1,3.326,3.049Z" transform="translate(-0.745 -1.969)" fill="#919090"/><path d="M33.959,27.438a3.206,3.206,0,0,1-3.326,3.049H17.326A3.206,3.206,0,0,1,14,27.438V3.045A3.206,3.206,0,0,1,17.326,0H30.632a3.206,3.206,0,0,1,3.326,3.049Z" transform="translate(-0.745 0)" fill="#aaa"/><path d="M31.016,53.5A1.016,1.016,0,1,1,30,54.512,1.019,1.019,0,0,1,31.016,53.5Z" transform="translate(-7.782 -26.315)" fill="#cfcfcf"/><path d="M28.536,3.514A.508.508,0,0,1,28.53,2.5h.006a.508.508,0,0,1,0,1.016Z" transform="translate(-6.81 -1.231)" fill="#f2f2f2"/><path d="M33.033,3.514H31.508a.508.508,0,0,1,0-1.016h1.524a.508.508,0,1,1,0,1.016Z" transform="translate(-8.273 -1.231)" fill="#cfcfcf"/><path d="M16,7H33.824V29.356H16Z" transform="translate(-1.677 -3.444)" fill="#fff"/><path d="M31.7,37.01h-12.2a.51.51,0,0,0-.508.508v6.6H32.212v-6.6A.51.51,0,0,0,31.7,37.01Z" transform="translate(-2.371 -18.206)" fill="#4c81ef"/><path d="M19.508,11a.51.51,0,0,0-.508.508v7.114a.51.51,0,0,0,.508.508H31.7a.51.51,0,0,0,.508-.508V11.508A.51.51,0,0,0,31.7,11Z" transform="translate(-2.371 -5.412)" fill="#ff8c8a"/><path d="M23.516,40.5A1.016,1.016,0,1,1,22.5,41.516,1.019,1.019,0,0,1,23.516,40.5Z" transform="translate(-4.093 -19.922)" fill="#ffce54"/><path d="M32.033,17.524,30,19.049V16Z" transform="translate(-7.782 -7.872)" fill="#f5f7fa"/><path d="M31.71,30.012h-12.2a.508.508,0,1,1,0-1.016h12.2a.508.508,0,1,1,0,1.016Z" transform="translate(-2.372 -14.264)" fill="#dfdbdb"/><path d="M25.606,33.016h-6.1a.508.508,0,1,1,0-1.016h6.1a.508.508,0,0,1,0,1.016Z" transform="translate(-2.372 -15.741)" fill="#dfdbdb"/><path d="M27.085,46.191a.473.473,0,0,0-.043-.036.422.422,0,0,0-.036-.044c-.013-.011-.028-.012-.042-.021a.568.568,0,0,0-.181-.075.474.474,0,0,0-.284.029.479.479,0,0,0-.088.045c-.013.009-.029.011-.042.021a.422.422,0,0,0-.036.044.487.487,0,0,0-.043.036L24.411,48.54h4.261a.5.5,0,0,0-.08-.464Z" transform="translate(-5.033 -22.631)" fill="#305cb7"/><path d="M33.973,43.09a.514.514,0,0,0-.1-.046.566.566,0,0,0-.084-.029.475.475,0,0,0-.1-.005.461.461,0,0,0-.092,0,.48.48,0,0,0-.089.032.454.454,0,0,0-.094.045c-.009.006-.018.007-.026.012a.485.485,0,0,0-.048.054.433.433,0,0,0-.053.048l-2.9,3.861H37L34.1,43.2a.431.431,0,0,0-.053-.048A.486.486,0,0,0,34,43.1c-.008-.006-.018-.007-.027-.012Z" transform="translate(-7.975 -21.156)" fill="#305cb7"/></g></svg>