<svg xmlns="http://www.w3.org/2000/svg" width="35.697" height="34.163" viewBox="0 0 35.697 34.163"><path d="M89.969,27.1a17.081,17.081,0,0,0-29.95-10.22C62.211,17.687,86.033,26.43,89.969,27.1Z" transform="translate(-55.834 -11)" fill="#f9f6ee"/><path d="M32.457,377.946a17.087,17.087,0,0,0,29.637,0Z" transform="translate(-30.194 -352.362)" fill="#f9f6ee"/><path d="M35.31,103.636a7.748,7.748,0,0,0-2.45-1.9,3.076,3.076,0,0,1-1.793,2.187c-1.613.644-5.518-1.493-6.241-3.021-.459-.969.214-1.184.375-1.221l-.064-.007a1.921,1.921,0,0,1-1.118-.514,28.918,28.918,0,0,0-4.969-3.648A23.857,23.857,0,0,0,4.25,92.35a17.156,17.156,0,0,0-1.509,1.993L.406,99.914a17.129,17.129,0,0,0,1.41,11.381H34.5l.857-1.2a1.376,1.376,0,0,0,.255-.8v-4.8A1.355,1.355,0,0,0,35.31,103.636Z" transform="translate(0 -86.543)" fill="#6ad394"/><path d="M36.753,94.78,41.37,94a1.269,1.269,0,0,1,.328-1.774,24.229,24.229,0,0,0-3.258.137,17.158,17.158,0,0,0-1.509,1.993Z" transform="translate(-34.191 -86.553)" fill="#59b37d"/><path d="M12.835,205.079a4.5,4.5,0,0,0-1.5-.331c-5.793-.5-6.266-4.179-6.266-6.862a3.24,3.24,0,0,1,2.7-3.14L.691,193.017l-.285.681a17.13,17.13,0,0,0,1.411,11.381Z" transform="translate(0 -180.327)" fill="#59b37d"/><path d="M275.849,278.609a6.195,6.195,0,0,0-12.39,0c0,.111,0,.221.009.331H275.84Q275.848,278.775,275.849,278.609Z" transform="translate(-245.091 -254.188)" fill="#5f5e6a"/><path d="M269.127,289.314a3.541,3.541,0,0,1-.4-2.1.366.366,0,0,0-.19-.359.68.68,0,0,1-.368-.707.364.364,0,0,0-.186-.359,1,1,0,0,1-.529-1,.365.365,0,0,0-.2-.353.778.778,0,0,1-.46-.629.362.362,0,0,0-.144-.245,6.2,6.2,0,0,0-3.193,5.418c0,.111,0,.221.009.331h5.66Z" transform="translate(-245.09 -264.562)" fill="#21212b"/><path d="M227.146,228a.667.667,0,0,1-.667-.667v-9.9a.667.667,0,0,1,1.334,0v9.9A.667.667,0,0,1,227.146,228Z" transform="translate(-210.689 -202.412)" fill="#59b37d"/><path d="M8.934,231.287a.672.672,0,0,1-.095-.007L6.844,231a.667.667,0,1,1,.188-1.321l1.995.284a.667.667,0,0,1-.093,1.327Z" transform="translate(-5.834 -214.423)" fill="#168c80"/><path d="M352.471,200.673c.732,1.547,4.687,3.711,6.321,3.059a3.125,3.125,0,0,0,1.823-2.238,23.214,23.214,0,0,0-7.73-2.064S351.947,199.564,352.471,200.673Z" transform="translate(-327.749 -186.293)" fill="#d6d6d0"/><path d="M412.851,211.64a2.155,2.155,0,0,0-.214,3.47,2.76,2.76,0,0,0,1.552-.019,3.125,3.125,0,0,0,1.823-2.238A16.434,16.434,0,0,0,412.851,211.64Z" transform="translate(-383.145 -197.651)" fill="#eeefeb"/><path d="M437.4,287.524l-5.023,1.537a.667.667,0,1,0,.39,1.276l4.633-1.418Z" transform="translate(-401.795 -268.245)" fill="#7af4ab"/><path d="M56.692,361.267H23.716a17.065,17.065,0,0,0,1.242,2.179H56.692a1.07,1.07,0,0,0,1.067-1.067v-.045A1.07,1.07,0,0,0,56.692,361.267Z" transform="translate(-22.063 -336.846)" fill="#4b4a55"/><path d="M285.683,300.568a4.918,4.918,0,1,1,4.918-4.918A4.923,4.923,0,0,1,285.683,300.568Z" transform="translate(-261.19 -271.23)" fill="#21212b"/><path d="M285.684,307.374a4.889,4.889,0,0,0,2.775-.861.954.954,0,0,1-.868-1.047.371.371,0,0,0-.229-.358.661.661,0,0,1-.418-.644.375.375,0,0,0-.216-.338,3.249,3.249,0,0,1-1.894-3.439.366.366,0,0,0-.19-.359.68.68,0,0,1-.368-.707.364.364,0,0,0-.186-.359,1,1,0,0,1-.529-1,.366.366,0,0,0-.054-.216,4.917,4.917,0,0,0,2.177,9.325Z" transform="translate(-261.191 -278.036)"/><ellipse cx="2.776" cy="2.776" rx="2.776" ry="2.776" transform="translate(21.717 21.645)" fill="#d6d6d0"/><path d="M314.258,331.636a2.758,2.758,0,0,0,1.375-.366.722.722,0,0,1-.115-.4.375.375,0,0,0-.216-.338,3.249,3.249,0,0,1-1.894-3.439.365.365,0,0,0-.19-.359.722.722,0,0,1-.3-.3,2.775,2.775,0,0,0,1.342,5.2Z" transform="translate(-289.765 -304.439)" fill="#c6c6c1"/><path d="M306.5,319.83a3.357,3.357,0,1,1,3.357-3.357A3.361,3.361,0,0,1,306.5,319.83Zm0-5.552a2.2,2.2,0,1,0,2.2,2.2A2.2,2.2,0,0,0,306.5,314.278Z" transform="translate(-282.012 -292.052)" fill="#eeefeb"/><path d="M303.146,320.823a3.355,3.355,0,0,0,5.208,2.8.379.379,0,0,0-.173-.147.661.661,0,0,1-.418-.644.374.374,0,0,0-.048-.18,2.194,2.194,0,1,1-2.117-3.827.382.382,0,0,0-.135-.129.68.68,0,0,1-.368-.707.363.363,0,0,0-.034-.2,3.361,3.361,0,0,0-1.915,3.031Z" transform="translate(-282.011 -296.402)" fill="#d6d6d0"/><path d="M9.026,128.214l-.521-6.08-.354.047a16.983,16.983,0,0,0-2.338,5.576Z" transform="translate(-5.408 -114.386)" fill="#21212b"/><path d="M116.645,123.535a28.883,28.883,0,0,0-3.868-2.712,22.08,22.08,0,0,0-11.049-3.061l.595,6.965,10.5,1.5a.542.542,0,0,0,.323-.054l3.4-1.736A.542.542,0,0,0,116.645,123.535Z" transform="translate(-94.636 -110.318)" fill="#21212b"/><path d="M43.285,119.026l.505,6.056,2.119.3-.551-6.6c-.384.031-.768.071-1.151.122Z" transform="translate(-40.267 -111.267)" fill="#5f5e6a"/><path d="M72.654,117.812l.567,6.6,2.129.3-.582-6.975C74.073,117.731,73.35,117.756,72.654,117.812Z" transform="translate(-67.589 -110.296)" fill="#363540"/><path d="M226.48,166.73l2.395.341a.542.542,0,0,0,.323-.054l3.4-1.736a.542.542,0,0,0,.1-.9,28.88,28.88,0,0,0-3.868-2.712S230.407,165.119,226.48,166.73Z" transform="translate(-210.69 -151.167)" fill="#363540"/><path d="M223.2,195.741h-1.493a.746.746,0,0,0-.744.744v2.421a.746.746,0,0,0,.744.744H223.2a1.684,1.684,0,0,0,1.679-1.679v-.55A1.684,1.684,0,0,0,223.2,195.741Z" transform="translate(-205.558 -182.861)" fill="#eeefeb"/><path d="M222.24,197.97v-.55a1.686,1.686,0,0,1,1.319-1.64,1.669,1.669,0,0,0-.36-.039h-1.493a.746.746,0,0,0-.744.744v2.421a.746.746,0,0,0,.744.744H223.2a1.667,1.667,0,0,0,.36-.039A1.685,1.685,0,0,1,222.24,197.97Z" transform="translate(-205.557 -182.861)" fill="#d6d6d0"/></svg>