<svg xmlns="http://www.w3.org/2000/svg" width="30.715" height="22.524" viewBox="0 0 30.715 22.524"><g transform="translate(-16 -80)"><g transform="translate(16 88.191)"><path d="M16,208v9.266a5.068,5.068,0,0,0,8.651,3.583l4.834-4.834a2.9,2.9,0,0,0,.848-2.048V208Z" transform="translate(-16 -208)" fill="#a5c3dc"/></g><g transform="translate(32.381 88.191)"><path d="M286.334,208v9.266a5.068,5.068,0,0,1-8.651,3.583l-4.834-4.834a2.9,2.9,0,0,1-.848-2.048V208Z" transform="translate(-272 -208)" fill="#a5c3dc"/></g><g transform="translate(16 81.024)"><path d="M39.548,96H23.167A7.167,7.167,0,0,0,16,103.167v7.942a4.344,4.344,0,0,0,7.415,3.071l3-3,.007-.007a2.785,2.785,0,0,1,1.972-.841h5.927a2.785,2.785,0,0,1,1.972.841l.007.007,3,3a4.344,4.344,0,0,0,7.415-3.071v-7.942A7.167,7.167,0,0,0,39.548,96Z" transform="translate(-16 -96)" fill="#d7e6f0"/></g><g transform="translate(27.262 81.024)"><path d="M198.429,99.071h-4.667a1.024,1.024,0,0,1-.971-.7L192,96h8.191l-.79,2.371A1.024,1.024,0,0,1,198.429,99.071Z" transform="translate(-192 -96)" fill="#a5c3dc"/></g><g transform="translate(24.703 89.214)"><circle cx="2.5" cy="2.5" r="2.5" transform="translate(-0.346 0.048)" fill="#a5c3dc"/></g><g transform="translate(25.214 89.726)"><path d="M163.583,233.28h-.768v-.768A.512.512,0,0,0,162.3,232h-.512a.512.512,0,0,0-.512.512v.768h-.768a.512.512,0,0,0-.512.512v.512a.512.512,0,0,0,.512.512h.768v.768a.512.512,0,0,0,.512.512h.512a.512.512,0,0,0,.512-.512v-.768h.768a.512.512,0,0,0,.512-.512v-.512A.512.512,0,0,0,163.583,233.28Z" transform="translate(-160 -232)" fill="#555a6e"/></g><g transform="translate(32.893 89.214)"><circle cx="2.5" cy="2.5" r="2.5" transform="translate(0.464 0.048)" fill="#463c4b"/></g><g transform="translate(33.917 90.238)"><circle cx="1.5" cy="1.5" r="1.5" transform="translate(0.44 0.024)" fill="#555a6e"/></g><g transform="translate(19.583 84.437)"><g transform="translate(0)"><circle cx="2.56" cy="2.56" r="2.56" fill="#463c4b"/></g><g transform="translate(1.024 1.024)"><circle cx="1.536" cy="1.536" r="1.536" fill="#555a6e"/></g></g><g transform="translate(37.5 83.754)"><g transform="translate(2.048)"><circle cx="1.024" cy="1.024" r="1.024" fill="#00d2d2"/></g><g transform="translate(2.048 4.095)"><circle cx="1.024" cy="1.024" r="1.024" fill="#00d2d2"/></g><g transform="translate(0 2.048)"><circle cx="1.024" cy="1.024" r="1.024" fill="#ff6e91"/></g><g transform="translate(4.095 2.048)"><circle cx="1.024" cy="1.024" r="1.024" fill="#ff6e91"/></g></g><g transform="translate(28.286 85.631)"><circle cx="1" cy="1" r="1" transform="translate(0.071 -0.369)" fill="#a5c3dc"/><g transform="translate(4.095)"><circle cx="1" cy="1" r="1" transform="translate(-0.024 -0.369)" fill="#a5c3dc"/></g></g><g transform="translate(23.167 80)"><path d="M131.072,80h-2.048A1.024,1.024,0,0,0,128,81.024h4.1A1.024,1.024,0,0,0,131.072,80Z" transform="translate(-128 -80)" fill="#555a6e"/></g><g transform="translate(35.453 80)"><path d="M323.072,80h-2.048A1.024,1.024,0,0,0,320,81.024h4.1A1.024,1.024,0,0,0,323.072,80Z" transform="translate(-320 -80)" fill="#555a6e"/></g></g></svg>