<svg xmlns="http://www.w3.org/2000/svg" width="20.042" height="20.025" viewBox="0 0 20.042 20.025"><ellipse cx="1.8" cy="1.8" rx="1.8" ry="1.8" transform="translate(8.221 8.204)" fill="#2196f3"/><path d="M345.786,194.461l-3.537-2.358a.589.589,0,0,0-.916.49v4.716a.59.59,0,0,0,.311.519.581.581,0,0,0,.278.071.589.589,0,0,0,.327-.1l3.537-2.358a.59.59,0,0,0,0-.981Z" transform="translate(-326.006 -184.948)" fill="#2196f3"/><path d="M68.411,192.082a.59.59,0,0,0-.6.028l-3.537,2.358a.59.59,0,0,0,0,.981l3.537,2.358a.59.59,0,0,0,.327.1.581.581,0,0,0,.278-.071.59.59,0,0,0,.311-.519V192.6A.59.59,0,0,0,68.411,192.082Z" transform="translate(-64.007 -184.955)" fill="#2196f3"/><path d="M192.592,69.017h4.716a.59.59,0,0,0,.49-.916l-2.358-3.537a.613.613,0,0,0-.981,0L192.1,68.1a.589.589,0,0,0,.491.916Z" transform="translate(-184.929 -64.319)" fill="#2196f3"/><path d="M197.311,341.333H192.6a.59.59,0,0,0-.49.916l2.358,3.537a.59.59,0,0,0,.981,0l2.358-3.537a.589.589,0,0,0-.49-.916Z" transform="translate(-184.932 -326.024)" fill="#2196f3"/></svg>