<svg xmlns="http://www.w3.org/2000/svg" xmlns:xlink="http://www.w3.org/1999/xlink" width="27.063" height="24.827" viewBox="0 0 27.063 24.827"><defs><linearGradient id="a" y1="4.584" x2="1" y2="4.584" gradientUnits="objectBoundingBox"><stop offset="0" stop-color="#ffb835"/><stop offset="0.901" stop-color="#f70"/></linearGradient><linearGradient id="b" x1="0" y1="0.42" x2="1" y2="0.42" xlink:href="#a"/><linearGradient id="c" y1="1.204" x2="1" y2="1.204" gradientUnits="objectBoundingBox"><stop offset="0" stop-color="#fb9900"/><stop offset="1" stop-color="#da6200"/></linearGradient><linearGradient id="d" y1="-0.251" x2="1" y2="-0.251" gradientUnits="objectBoundingBox"><stop offset="0.001" stop-color="#fff"/><stop offset="1" stop-color="#ffb835"/></linearGradient></defs><g transform="translate(-5.155 -4.549)"><path d="M195.361,76.754h-2.048V74.118a.957.957,0,0,0-.956-.956H187.3a.957.957,0,0,0-.956.956v2.636H184.3V74.118a3.008,3.008,0,0,1,3-3h5.052a3.008,3.008,0,0,1,3,3Z" transform="translate(-171.144 -66.564)" fill="url(#a)"/><path d="M107.648,143.16v15.373a2.032,2.032,0,0,1-2.026,2.026H82.611a2.032,2.032,0,0,1-2.026-2.026V143.16a2.033,2.033,0,0,1,2.026-2.026h23.01A2.033,2.033,0,0,1,107.648,143.16Z" transform="translate(-75.43 -131.184)" fill="url(#b)"/><path d="M107.648,143.16v8.465H80.585V143.16a2.033,2.033,0,0,1,2.026-2.026h23.01A2.033,2.033,0,0,1,107.648,143.16Z" transform="translate(-75.43 -131.184)" fill="url(#c)"/><path d="M218.622,254.464h-4.648a1,1,0,0,1-.995-.995v-2.148a1,1,0,0,1,.995-.995h4.648a1,1,0,0,1,.995.995v2.148A1,1,0,0,1,218.622,254.464Z" transform="translate(-197.612 -231.953)" fill="url(#d)"/></g></svg>