<svg xmlns="http://www.w3.org/2000/svg" width="30.196" height="24.839" viewBox="0 0 30.196 24.839"><g transform="translate(0 -45.419)"><path d="M450.74,69.7a.2.2,0,0,0-.292.275c1.009,1.561,2.905,5.257-.382,7.266l1.035,1.918a5.154,5.154,0,0,0,2.618-4.15A7.123,7.123,0,0,0,450.74,69.7Z" transform="translate(-423.521 -22.816)" fill="#f58c46"/><path d="M28.413,61.9a3.409,3.409,0,0,1-.652-2.005V57.179a4.383,4.383,0,0,0-3.947-4.362l-10.037-.953a1.948,1.948,0,0,1-1.387-.788l-.442-.6-.051-.035a3,3,0,0,0-.177-2.035c-.461-.958-2.116-2.983-3.775-2.983H6.638a2.922,2.922,0,0,0-2,.794L3.409,47.367l-3.051.855a.487.487,0,0,0-.35.56l.184.866a.971.971,0,0,0,.842.783l.1.639a.992.992,0,0,0,.68.759,11.557,11.557,0,0,0,3.478.528.432.432,0,0,1,.447.405,11.666,11.666,0,0,0,.513,2.858l.529,1.463a25.779,25.779,0,0,0,1.648,3.251,16.23,16.23,0,0,1,2.283,7.488l-1.41.7a.974.974,0,0,0-.538.871v.372a.487.487,0,0,0,.487.487h2.512a.974.974,0,0,0,.971-.894l.631-7.623a15.542,15.542,0,0,0,8.916-.78,9.007,9.007,0,0,0,4.99,3.534v3.328l-1.823.729a.974.974,0,0,0-.612.9v.315a.487.487,0,0,0,.487.487H27.9a.974.974,0,0,0,.964-.831l.822-5.547a.487.487,0,0,0-.088-.358Z" transform="translate(0)" fill="#eba34b"/><path d="M23.973,135.023l.529,1.463a25.779,25.779,0,0,0,1.648,3.251,16.375,16.375,0,0,1,.95,1.874c-.383-1.6-.981-3.436-1.315-4.522A21.943,21.943,0,0,1,25.206,131c-.061-1.309-1.644-1.268-2.09-1.147l-4.288.449.027.169a.992.992,0,0,0,.68.759,11.558,11.558,0,0,0,3.478.528.432.432,0,0,1,.447.405A11.665,11.665,0,0,0,23.973,135.023Z" transform="translate(-17.717 -79.402)" fill="#ebc9a0"/><path d="M130.141,53.477a6.92,6.92,0,0,0-2.2-2.447,1.361,1.361,0,0,0-2.018.68l0,.013A1.43,1.43,0,0,0,126,52.838c.609,1.256.353,3.683,2.31,3.9C130.512,56.973,130.734,54.71,130.141,53.477Z" transform="translate(-118.421 -5.075)" fill="#f58c46"/><path d="M83.11,79.426a.487.487,0,0,1,0-.974h0a.487.487,0,1,1,0,.974Z" transform="translate(-77.748 -31.085)" fill="#4b3f4e"/><path d="M235.583,280.848a8.78,8.78,0,0,1-.6-1.132.825.825,0,0,0-.931-.477,15.169,15.169,0,0,1-6.09-.13,1.006,1.006,0,0,0-1.214.933l-.083,1.586A15.543,15.543,0,0,0,235.583,280.848Z" transform="translate(-213.299 -219.887)" fill="#ebc9a0"/><path d="M21.609,121.607a24.152,24.152,0,0,1-4.044.509l.1.633a.983.983,0,0,0,.136.328l.055,0a24.406,24.406,0,0,0,4-.526.487.487,0,0,0-.251-.941Z" transform="translate(-16.529 -71.678)" fill="#d99365"/><path d="M.009,91.415l.155.726a.927.927,0,0,0,.1.009.844.844,0,0,0,.873-.812.785.785,0,0,0-.31-.616l-.469.131A.487.487,0,0,0,.009,91.415Z" transform="translate(0 -42.633)" fill="#4b3f4e"/><path d="M99.062,144.489a.462.462,0,0,1-.438-.382.488.488,0,0,1,.349-.578,13.741,13.741,0,0,0,6.341-4.053.436.436,0,0,1,.644-.015.509.509,0,0,1,.013.687,14.387,14.387,0,0,1-6.807,4.331A.438.438,0,0,1,99.062,144.489Z" transform="translate(-92.798 -88.369)" fill="#6e4848"/><path d="M91.57,226.292h0a.731.731,0,0,1-.731-.731v-.487a.731.731,0,0,1,.731-.731h0a.731.731,0,0,1,.731.731v.487A.731.731,0,0,1,91.57,226.292Z" transform="translate(-85.481 -168.372)" fill="#f58c46"/></g></svg>