<svg xmlns="http://www.w3.org/2000/svg" width="24.503" height="29.608" viewBox="0 0 24.503 29.608"><g transform="translate(0 0)"><path d="M12.252,6.126V0h11.23A1.021,1.021,0,0,1,24.5,1.021V6.126Zm2.042-2.043H19.4V2.042H14.294ZM0,6.126V1.021A1.021,1.021,0,0,1,1.021,0H12.252V6.126Z" transform="translate(0 0)" fill="#4c81ef"/><path d="M224,32h5.1v2.042H224Zm0,0" transform="translate(-209.707 -29.958)" fill="#f1f2f2"/><path d="M12.252,23.482V20.93a9.189,9.189,0,0,0,0-18.378V0H24.5V22.461a1.021,1.021,0,0,1-1.021,1.021Zm-11.231,0A1.021,1.021,0,0,1,0,22.461V0H12.252V2.552a9.189,9.189,0,0,0,0,18.378v2.552Z" transform="translate(0 6.126)" fill="#dfdbdb"/><path d="M0,9.188a9.189,9.189,0,1,1,9.188,9.188A9.189,9.189,0,0,1,0,9.188ZM9.188,2.042a7.147,7.147,0,1,0,7.147,7.147A7.147,7.147,0,0,0,9.188,2.042Z" transform="translate(3.063 8.678)" fill="#c2c2c2"/><path d="M5.989,11.194,7.147,9.189V5.1L4.221,10.173,7.147,5.1V0a7.147,7.147,0,0,0,0,14.293v-5.1Zm0,0" transform="translate(12.251 7.76) rotate(45)" fill="#414042"/><path d="M7.147,7.147A7.154,7.154,0,0,0,0,0V5.1L1.158,3.1,0,5.1V9.189L2.926,4.12,0,9.189v5.1A7.154,7.154,0,0,0,7.147,7.147Zm0,0" transform="translate(17.305 12.813) rotate(45)" fill="#646464"/><path d="M222.126,27.063H216V24h6.126Zm-5.1-1.021H221.1V25.021h-4.084Zm0,0" transform="translate(-202.217 -22.469)" fill="#f1f2f2"/><path d="M41.531,25.021H40.51a.51.51,0,1,1,0-1.021h1.021a.51.51,0,1,1,0,1.021Zm0,0" transform="translate(-37.448 -22.469)" fill="#f1f2f2"/><path d="M41.531,57.021H40.51a.51.51,0,0,1,0-1.021h1.021a.51.51,0,0,1,0,1.021Zm0,0" transform="translate(-37.448 -52.427)" fill="#f1f2f2"/><path d="M89.531,25.021H88.51a.51.51,0,0,1,0-1.021h1.021a.51.51,0,0,1,0,1.021Zm0,0" transform="translate(-82.385 -22.469)" fill="#f1f2f2"/><path d="M89.531,57.021H88.51a.51.51,0,0,1,0-1.021h1.021a.51.51,0,0,1,0,1.021Zm0,0" transform="translate(-82.385 -52.427)" fill="#f1f2f2"/><path d="M137.531,25.021H136.51a.51.51,0,1,1,0-1.021h1.021a.51.51,0,1,1,0,1.021Zm0,0" transform="translate(-127.322 -22.469)" fill="#f1f2f2"/><path d="M137.531,57.021H136.51a.51.51,0,1,1,0-1.021h1.021a.51.51,0,1,1,0,1.021Zm0,0" transform="translate(-127.322 -52.427)" fill="#f1f2f2"/></g></svg>