<svg xmlns="http://www.w3.org/2000/svg" width="29.059" height="29.994" viewBox="0 0 29.059 29.994"><g transform="translate(-7.638 -0.001)"><path d="M35.477,32.918l.075-.077a.665.665,0,0,1,1.126.621A14.744,14.744,0,1,1,18.746,15.541a.666.666,0,0,1,.632,1.122q-.085.082-.169.165a11.44,11.44,0,1,0,16.267,16.09Z" transform="translate(-0.003 -14.568)" fill="#fce25c"/><path d="M30.531,42.122A14.746,14.746,0,1,1,18.743,15.541a.668.668,0,0,1,.265-.015,14.741,14.741,0,0,0,11.523,26.6Z" transform="translate(0 -14.569)" fill="#fbd307"/><path d="M345.035,199.844l.438.888a.474.474,0,0,0,.357.259l.98.142a.474.474,0,0,1,.263.808l-.709.691a.474.474,0,0,0-.136.419l.167.976a.474.474,0,0,1-.687.5l-.877-.461a.474.474,0,0,0-.441,0l-.877.461a.474.474,0,0,1-.687-.5l.167-.976a.474.474,0,0,0-.136-.419l-.709-.691a.474.474,0,0,1,.263-.808l.98-.142a.474.474,0,0,0,.357-.259l.438-.888A.474.474,0,0,1,345.035,199.844Z" transform="translate(-313.898 -187.363)" fill="#fce25c"/><path d="M343.717,203.246a2.956,2.956,0,0,0,.2,1.07l-.4.211a.474.474,0,0,1-.687-.5l.168-.976a.473.473,0,0,0-.137-.419l-.709-.692a.474.474,0,0,1,.263-.808l.981-.143a.475.475,0,0,0,.357-.259l.438-.889a.474.474,0,0,1,.85,0l.361.733A2.961,2.961,0,0,0,343.717,203.246Z" transform="translate(-313.901 -187.362)" fill="#fbd307"/><path d="M242.578.565l.641,1.3a1.009,1.009,0,0,0,.76.552l1.432.208a1.009,1.009,0,0,1,.559,1.721l-1.036,1.01a1.009,1.009,0,0,0-.29.893l.245,1.426a1.009,1.009,0,0,1-1.464,1.063l-1.281-.673a1.009,1.009,0,0,0-.939,0l-1.281.673a1.009,1.009,0,0,1-1.464-1.063l.245-1.426a1.009,1.009,0,0,0-.29-.893l-1.036-1.01a1.009,1.009,0,0,1,.559-1.721l1.432-.208a1.009,1.009,0,0,0,.76-.552l.641-1.3a1.009,1.009,0,0,1,1.809,0Z" transform="translate(-215.39 -0.002)" fill="#fce25c"/><path d="M240.586,6.6a5.194,5.194,0,0,0,.266,1.647l-.933.491a1.009,1.009,0,0,1-1.464-1.064l.245-1.426a1.011,1.011,0,0,0-.29-.893l-1.037-1.01a1.009,1.009,0,0,1,.559-1.721l1.432-.208a1.011,1.011,0,0,0,.76-.552l.64-1.3a1.009,1.009,0,0,1,1.809,0l.64,1.3a.982.982,0,0,0,.1.164A5.189,5.189,0,0,0,240.586,6.6Z" transform="translate(-215.386 0)" fill="#fbd307"/></g></svg>