<svg xmlns="http://www.w3.org/2000/svg" width="22.195" height="22.195" viewBox="0 0 22.195 22.195"><g transform="translate(-104.667 -104.667)"><g transform="translate(104.667 104.667)"><path d="M113.606,120.472l6.866-6.866a4.611,4.611,0,0,0,5.411-.813,4.536,4.536,0,0,0,.77-5.367l-2.609,2.609-.919-.919-.919-.919,2.609-2.609a4.536,4.536,0,0,0-5.367.77,4.611,4.611,0,0,0-.813,5.411l-6.866,6.866a4.611,4.611,0,0,0-5.411.813,4.536,4.536,0,0,0-.77,5.367L108.2,122.2l.919.919.919.919-2.609,2.609a4.536,4.536,0,0,0,5.367-.77A4.611,4.611,0,0,0,113.606,120.472Z" transform="translate(-105.01 -105.01)" fill="#bbdcff"/><path d="M137.613,156.84a4.536,4.536,0,0,0,5.367-.77,4.611,4.611,0,0,0,.813-5.411l6.866-6.866a4.611,4.611,0,0,0,5.411-.813,4.536,4.536,0,0,0,.77-5.367l-2.609,2.609-.919-.919L139.3,153.312l.919.919Z" transform="translate(-135.198 -135.198)" fill="#9abadb"/><g transform="translate(0 0)"><path d="M111.589,109.75l-.48-2.4-4.829-2.682-.806.806-.806.806,2.682,4.829,2.4.48,6.932,6.932.919-.919.919-.919Z" transform="translate(-104.667 -104.667)" fill="#cfeeff"/><path d="M107.349,121.3l2.4.48,6.932,6.932.919-.919-12.129-12.129-.806.806Z" transform="translate(-104.667 -114.859)" fill="#bbdcff"/></g><path d="M243.333,243.333a2.567,2.567,0,0,1-3.667,0l-8.482-8.482,3.667-3.667,8.482,8.482A2.567,2.567,0,0,1,243.333,243.333Z" transform="translate(-221.909 -221.909)" fill="#ff641a"/><path d="M243.333,266.508a2.567,2.567,0,0,1-3.667,0l-8.482-8.482,1.834-1.833Z" transform="translate(-221.909 -245.083)" fill="#f03800"/><g transform="translate(13.395 13.395)"><path d="M287.829,287.829l-.46.46.919.919.46-.46.46-.46-.919-.919Z" transform="translate(-287.369 -287.369)" fill="#f03800"/><path d="M312.911,312.911l-.46.46.919.919.46-.46.46-.46-.919-.919Z" transform="translate(-310.612 -310.612)" fill="#f03800"/><path d="M338.453,337.534l-.46.46-.46.46.919.919.46-.46.46-.46Z" transform="translate(-333.856 -333.856)" fill="#f03800"/></g><rect width="0.65" height="1.3" transform="translate(14.774 14.774) rotate(135)" fill="#cd0000"/><rect width="0.65" height="1.3" transform="translate(16.613 16.613) rotate(135)" fill="#cd0000"/><rect width="0.65" height="1.3" transform="translate(18.452 18.452) rotate(135)" fill="#cd0000"/></g></g></svg>