<svg xmlns="http://www.w3.org/2000/svg" width="22.946" height="29.474" viewBox="0 0 22.946 29.474"><g transform="translate(-0.5 0)"><path d="M115.26,0h-1.973a.432.432,0,0,0-.432.432V5.414a.432.432,0,0,0,.309.414.425.425,0,0,0,.122.018.432.432,0,0,0,.362-.2,2.182,2.182,0,0,1,1.644-.988.432.432,0,0,0,.4-.43V.432A.432.432,0,0,0,115.26,0Zm0,0" transform="translate(-105.888)" fill="#757575"/><path d="M239.873,0H237.9a.432.432,0,0,0-.432.432v3.8a.432.432,0,0,0,.4.43,2.182,2.182,0,0,1,1.645.988.432.432,0,0,0,.362.2A.426.426,0,0,0,240,5.828a.431.431,0,0,0,.309-.414V.432A.431.431,0,0,0,239.873,0Zm0,0" transform="translate(-223.327 0)" fill="#424242"/><path d="M116.364,69.746a3.029,3.029,0,0,0-4.586-3.391,1.259,1.259,0,0,1-1.409,0,3.029,3.029,0,0,0-4.586,3.391,26.326,26.326,0,0,1,.77,3.2h9.042a26.281,26.281,0,0,1,.769-3.2Zm0,0" transform="translate(-99.101 -62.051)" fill="#ff5a5f"/><path d="M127.468,68.667a3.028,3.028,0,0,0-2.856-2.8l-.089,0a3.029,3.029,0,0,1,.521,2.752q-.139.458-.258.9a3.116,3.116,0,0,1-3.01,2.3h-4.469q.132.589.228,1.151h9.042a26.324,26.324,0,0,1,.77-3.2,3.03,3.03,0,0,0,.121-1.1Zm0,0" transform="translate(-110.084 -62.076)" fill="#e64348"/><path d="M23.369,252.079l-1.244-1.807a47.627,47.627,0,0,1-5.575-10.861,4.539,4.539,0,0,1-.149-.505H7.543a4.539,4.539,0,0,1-.149.505A47.635,47.635,0,0,1,1.82,250.272L.576,252.079a.432.432,0,0,0,.213.652,33.94,33.94,0,0,0,22.367,0,.432.432,0,0,0,.213-.652Zm0,0" transform="translate(0 -225.153)" fill="#ff5a5f"/><g transform="translate(0.5 12.889)"><path d="M19.824,249.121a2.049,2.049,0,0,1-1.142,3.137,33.951,33.951,0,0,1-18.168-.04.431.431,0,0,0,.276.514,33.939,33.939,0,0,0,22.367,0,.432.432,0,0,0,.213-.652l-1.244-1.807a47.627,47.627,0,0,1-5.575-10.861,4.538,4.538,0,0,1-.149-.505H14.488a47.618,47.618,0,0,0,5.336,10.215Zm0,0" transform="translate(-0.501 -238.043)" fill="#e64348"/><path d="M83.434,237.842a.432.432,0,0,1-.4-.6l.424-1.029a64.758,64.758,0,0,0,3.57-11.963.466.466,0,0,1,.014-.052.432.432,0,0,1,.832.228,65.634,65.634,0,0,1-3.617,12.116l-.424,1.029a.432.432,0,0,1-.4.267Zm0,0" transform="translate(-78.253 -223.906)" fill="#e64348"/><path d="M236.233,237.839a.432.432,0,0,1-.4-.267l-.424-1.03a65.622,65.622,0,0,1-3.618-12.123.432.432,0,1,1,.847-.169,64.761,64.761,0,0,0,3.57,11.963l.424,1.03a.432.432,0,0,1-.235.564.427.427,0,0,1-.164.033Zm0,0" transform="translate(-218.469 -223.902)" fill="#e64348"/><path d="M156.414,238.411a.451.451,0,0,1-.057,0,.432.432,0,0,1-.371-.485l.21-1.594c.489-3.7.875-7.744,1.148-12.011a.432.432,0,0,1,.863.024h0c0,.009,0,.018,0,.028-.274,4.287-.663,8.348-1.154,12.071l-.21,1.594a.432.432,0,0,1-.427.376Zm0,0" transform="translate(-147.031 -223.91)" fill="#e64348"/><path d="M206.743,238.408a.432.432,0,0,1-.427-.375l-.21-1.594c-.492-3.724-.88-7.785-1.154-12.071a.432.432,0,1,1,.862-.055c.273,4.267.66,8.309,1.149,12.013l.21,1.595a.431.431,0,0,1-.371.484.408.408,0,0,1-.057,0Zm0,0" transform="translate(-193.18 -223.908)" fill="#e64348"/></g><path d="M130.118,190.6l.006-.06q.065-.65.181-1.327h-9.042q.116.679.181,1.327l.006.06a4.514,4.514,0,0,1-.1,1.473h8.859a4.509,4.509,0,0,1-.1-1.473Zm0,0" transform="translate(-113.81 -178.322)" fill="#757575"/><path d="M237.023,190.6l.006-.06q.065-.65.181-1.327h-2.3q-.116.679-.181,1.327l-.006.06a4.508,4.508,0,0,0,.095,1.473h2.3A4.514,4.514,0,0,1,237.023,190.6Zm0,0" transform="translate(-220.716 -178.322)" fill="#424242"/></g></svg>