<svg xmlns="http://www.w3.org/2000/svg" width="341.342" height="96.955" viewBox="0 0 341.342 96.955"><g transform="translate(-383.131 -21.754)"><g transform="translate(383.131 30.543)"><path d="M224.993,170.714a2.529,2.529,0,0,1-3.675.355,46.642,46.642,0,0,1-11.824,2.97l18.561,6.269c.606-4.15,1.1-6.949,2.826-8.666Zm17.922-15.106-1.383.112a47.157,47.157,0,0,1-15.338,13.09c6.542,1.342,7.955.856,13.539.611,1.045-.018,2.021-.036,2.9-.125,4.3-.434,4.355-3.353,3.867-8.732A45.138,45.138,0,0,0,242.915,155.608Zm1.2-3.667a2.535,2.535,0,0,1,.266,2.142,46.537,46.537,0,0,1,3.036,4.03l1.255-1.722c-2.055-2.729,3.279-1.878,1.837-4.587-.813-1.521-3.028-3.7.417-5.142,1.886-.79,4.488-.473,5.124-.851.309-.184-5-8.313-5.85-9.627A46.737,46.737,0,0,1,244.116,151.941Zm-17.322-45.259a3.387,3.387,0,0,1,2.614,1.983,46.724,46.724,0,0,1,11.932-.445,31.905,31.905,0,0,0-48.658.189,47.579,47.579,0,0,1,30.764-.2A3.393,3.393,0,0,1,226.795,106.682Zm6.356,35.936.24,1.906a46.736,46.736,0,0,1,8.035,6.356,2.466,2.466,0,0,1,.9-.056,44.609,44.609,0,0,0,5.873-15.443,46.7,46.7,0,0,1-9.8,2.8,2.487,2.487,0,0,1-2.883,1.7Q234.391,141.3,233.15,142.618ZM230.82,140.9a3.076,3.076,0,0,1,.825.24q1.085-1.154,2.08-2.4a46.969,46.969,0,0,1-31.334-9.208,3.128,3.128,0,0,1-2.443.4,44.581,44.581,0,0,0-4.582,8.768,4.515,4.515,0,0,1,.342.424,46.93,46.93,0,0,1,32.532,2.6A3.072,3.072,0,0,1,230.82,140.9Zm10.534-21.61a3.088,3.088,0,0,1,.613-.158,38.974,38.974,0,0,0,.115-8.712,44.636,44.636,0,0,0-12.461.35l-.01.036A46.766,46.766,0,0,1,241.354,119.291Zm-.565,5.689a3.231,3.231,0,0,1-1.071-4.342,44.813,44.813,0,0,0-11.2-8.022,3.459,3.459,0,0,1-4.822-.414,44.982,44.982,0,0,0-20.3,13.261,3.139,3.139,0,0,1,.261,2.387,44.855,44.855,0,0,0,30.028,8.781,2.486,2.486,0,0,1,2.694-1.636A38.984,38.984,0,0,0,240.789,124.98Zm2.954.176a3.135,3.135,0,0,1-.879.256,41.057,41.057,0,0,1-4.679,10.669,44.551,44.551,0,0,0,10.411-3.164A44.981,44.981,0,0,0,243.743,125.156Zm.3-5.617a3.225,3.225,0,0,1,1.227,4.15,47.362,47.362,0,0,1,3.792,5.63,33.454,33.454,0,0,0-4.728-16.954ZM203.291,155.6a2.862,2.862,0,0,1-.248.5,44.292,44.292,0,0,0,18.188,11.4,2.534,2.534,0,0,1,3.312-.2,45,45,0,0,0,15.3-12.837,2.553,2.553,0,0,1-.054-2.236,44.434,44.434,0,0,0-7.488-5.893,3.14,3.14,0,0,1-3.468.261A41.175,41.175,0,0,1,203.291,155.6Zm-2.5-4.288a3.17,3.17,0,0,1,2.566,2.177,39.069,39.069,0,0,0,24.124-8.518,3.051,3.051,0,0,1-.163-1.331,44.846,44.846,0,0,0-30.828-2.538,4.519,4.519,0,0,1-1.365,3.821,44.634,44.634,0,0,0,4.03,6.583A3.14,3.14,0,0,1,200.795,151.307Zm-13.6-29.11c5.42.787,4.222,9.021-1.2,8.234S181.774,121.409,187.194,122.2Zm2.07,35.333c5.42.79,4.224,9.024-1.2,8.234S183.844,156.742,189.264,157.53ZM174.7,140c4.242.616,3.3,7.087-.94,6.471S170.455,139.383,174.7,140Zm-2.351-14.8a2.229,2.229,0,0,1-.642,4.411A2.229,2.229,0,0,1,172.346,125.194Zm-1.2,31.656a2.229,2.229,0,0,1-.641,4.411A2.229,2.229,0,0,1,171.148,156.85Zm-9.3-21.372a2.229,2.229,0,0,1-.641,4.411A2.229,2.229,0,0,1,161.843,135.478Zm31.722,2.047a46.46,46.46,0,0,1,4.649-8.781,3.1,3.1,0,0,1,3.585-4.654,47.14,47.14,0,0,1,21.076-13.841,45.092,45.092,0,0,0-30.914.682,3.1,3.1,0,0,1-3.409,3.828c-4.183-.608-2.911-7.038,1.178-6.018a34.016,34.016,0,0,1,61.262,17.416,23.2,23.2,0,0,1-.112,6.65c.089.194.181.391.268.585l-.107.051,6.136,9.867c3.5,5.883-3.3,4.4-5.438,5.3-.976.409-.624-.148.634,2.208.912,1.71,1.2,3.384-1.441,4.792-.148.079-.846-.846-.57-.48.455.606,1.178,1.564-1.117,4.1-.813.9-.664.981-.532,2.211h0c1.1,10.915-5.5,10.365-13.169,10.409-4.263.877-4.682,3.757-5.52,9.54h.005l-.25,1.725-24.952-8.428a2.483,2.483,0,1,1,.575-2.466,44.569,44.569,0,0,0,14.618-2.9A46.776,46.776,0,0,1,201.4,157.43a3.206,3.206,0,0,1-3.831-4.531,47.145,47.145,0,0,1-4.286-6.951,4.411,4.411,0,1,1,.278-8.423Z" transform="translate(-159.326 -94.947)" fill="#fff"/></g><text transform="translate(503.472 72.754)" fill="#fff" font-size="47" font-family="SegoeUI-Bold, Segoe UI" font-weight="700"><tspan x="0" y="0">enkaryera</tspan></text><text transform="translate(526.472 104.754)" fill="#fff" font-size="14" font-family="SegoeUI, Segoe UI"><tspan x="0" y="0">Psixoloji Məsləhət Mərkəzi</tspan></text></g></svg>