<svg xmlns="http://www.w3.org/2000/svg" width="141.138" height="45.68" viewBox="0 0 141.138 45.68"><g transform="translate(-629.683 -1349.503)"><path d="M833.423,1431.537a13.521,13.521,0,1,0,9.323,3.965A12.786,12.786,0,0,0,833.423,1431.537Zm5.179,18.893a7.034,7.034,0,0,1-10.372,0,8.231,8.231,0,0,1,0-11.211,7.034,7.034,0,0,1,10.372,0,8.265,8.265,0,0,1,0,11.213Z" transform="translate(-154.17 -66.401)" fill="#fff"/><path d="M988.2,1435.5a12.957,12.957,0,1,0,3.951,9.322A12.787,12.787,0,0,0,988.2,1435.5Zm-4.144,14.928a7.034,7.034,0,0,1-10.372,0,8.231,8.231,0,0,1,0-11.211,7.034,7.034,0,0,1,10.372,0,8.266,8.266,0,0,1,0,11.213Z" transform="translate(-271.907 -66.401)" fill="#fff"/><path d="M1105.01,1545.16a2.714,2.714,0,0,0-2.651,2.65,2.51,2.51,0,0,0,.794,1.846,2.589,2.589,0,0,0,3.712,0,2.511,2.511,0,0,0,.794-1.846,2.713,2.713,0,0,0-2.65-2.65Z" transform="translate(-382.602 -158.372)" fill="#fff"/><path d="M1154.568,1440.1a10.513,10.513,0,0,0-7.436-2.685,12.6,12.6,0,0,0-3.517.492,11.4,11.4,0,0,0-2.735,1.122,14.7,14.7,0,0,0-1.953,1.424,12.528,12.528,0,0,0-1.185,1.109q-.265.315-.416.516l3.353,3.353.681-.882a6.2,6.2,0,0,1,2.206-1.651,7.714,7.714,0,0,1,3.567-.819,5.271,5.271,0,0,1,3.718,1.336,4.312,4.312,0,0,1,1.45,3.3l-9.05,1.563a8.971,8.971,0,0,0-5.281,2.622,7.217,7.217,0,0,0-1.928,5.117,6.542,6.542,0,0,0,2.5,5.016,9.163,9.163,0,0,0,6.277,2.193,10.084,10.084,0,0,0,2.546-.328,10.832,10.832,0,0,0,2.092-.744,11.313,11.313,0,0,0,1.55-.933,10.779,10.779,0,0,0,.958-.744q.24-.227.341-.328v2.571h5.167v-16.007A8.663,8.663,0,0,0,1154.568,1440.1Zm-2.268,11.256a7.5,7.5,0,0,1-1.777,5.357,6.459,6.459,0,0,1-4.928,1.878,5.093,5.093,0,0,1-3.214-.933,2.708,2.708,0,0,1-1.2-2.168,3.056,3.056,0,0,1,.857-2.218,4.04,4.04,0,0,1,2.244-1.134l8.016-1.286Z" transform="translate(-409.864 -71.16)" fill="#fff"/><path d="M1268.432,1460.335l13.663-15.5v-4.638h-19.612v4.638h13.159l-13.663,15.5v4.638h20.645v-4.638Z" transform="translate(-511.803 -73.409)" fill="#fff"/><circle cx="6.933" cy="6.933" r="6.933" transform="translate(639.524 1371.477)" fill="#fff"/><g transform="translate(629.683 1349.503)"><path d="M663.229,1354.63,658.1,1349.5v16.853a16.773,16.773,0,1,0-1.367,25.294l-3.663-3.663a11.663,11.663,0,1,1,2.961-2.961l3.663,3.663a16.684,16.684,0,0,0,3.533-10.279c0-.562-.029-1.117-.083-1.666h.083Z" transform="translate(-629.683 -1349.503)" fill="#fff"/></g></g></svg>