<svg xmlns="http://www.w3.org/2000/svg" width="46.594" height="46.621"><path d="M37.26 1.852c.7-.066 1.39.216 1.842.754l5.865 6.562c.32.328.57.716.74 1.14a4.56 4.56 0 0 1 .349 1.358q-.002.047.01.283.012.236-.008.6a21.65 21.65 0 0 1-.456 2.868c-.396 1.662-.984 3.273-1.754 4.8a41 41 0 0 1-3.931 6.354c-2.058 2.718-4.396 5.214-6.974 7.445a51.46 51.46 0 0 1-6.477 5.116 44.17 44.17 0 0 1-5.648 3.186c-1.5.707-3.055 1.286-4.652 1.73a24.17 24.17 0 0 1-3.562.703 11.63 11.63 0 0 1-2.332.066q-.84-.09-.935-.096c-.46-.094-.903-.258-1.312-.487a3.52 3.52 0 0 1-1.057-.856l-5.92-6.564a2.07 2.07 0 0 1-.578-1.532 1.75 1.75 0 0 1 .408-1.058c.255-.304.563-.56.9-.753l9.783-4.52c.513-.255 1.104-.308 1.654-.15.56.142 1.068.447 1.456.877l2.176 2.417c.084.08.185.143.296.18a1.16 1.16 0 0 0 .348.088 8.48 8.48 0 0 0 2.295-.726c.985-.455 1.933-.988 2.834-1.592a30.5 30.5 0 0 0 3.902-3.134c1.28-1.094 2.47-2.3 3.556-3.576a21.7 21.7 0 0 0 1.901-2.654 7.3 7.3 0 0 0 .769-1.653l.148-.58a1.12 1.12 0 0 0-.054-.308c-.025-.114-.076-.22-.148-.313l-2.58-2.816c-.462-.564-.694-1.282-.647-2 .001-.44.122-.873.348-1.252l.002-.044 5.82-8.77c.354-.58.94-.978 1.61-1.094z" fill="#ff5a5f"/></svg>