<svg xmlns="http://www.w3.org/2000/svg" width="14.9" height="14.895"><path d="M12.726 14.895H2.174a2.17 2.17 0 0 1-1.848-1.03 2.17 2.17 0 0 1-.094-2.113l5.276-10.55A2.17 2.17 0 0 1 7.45.003a2.17 2.17 0 0 1 1.942 1.2l5.276 10.552a2.17 2.17 0 0 1-1.942 3.14z" fill="#ffb92d"/><path d="M6.64 11.893a.66.66 0 0 1 .248-.517.9.9 0 0 1 .6-.213c.2-.003.395.074.54.213.145.132.228.318.228.514s-.083.383-.228.514c-.143.143-.338.22-.54.22a.88.88 0 0 1-.6-.219c-.155-.125-.246-.313-.248-.512zm.08-7.154a.58.58 0 0 1 .211-.479.85.85 0 0 1 .547-.169.63.63 0 0 1 .493.176.68.68 0 0 1 .157.472l-.066 4.993c.001.133-.072.255-.2.317-.118.074-.255.114-.394.115q-.6 0-.6-.432l-.158-4.99z" fill="#fff"/></svg>